<svg xmlns="http://www.w3.org/2000/svg" width="1200" height="760" viewBox="0 0 1200 760" role="img" aria-label="工作日报 sample report">
<style>.title{font:700 42px Arial,'Noto Sans CJK SC',sans-serif;fill:#fff} .meta{font:500 19px Arial,'Noto Sans CJK SC',sans-serif;fill:#e9e7ff} .small{font:600 18px Arial,'Noto Sans CJK SC',sans-serif;fill:#5d6470} .item{font:600 24px Arial,'Noto Sans CJK SC',sans-serif;fill:#202532} .body{font:400 17px Arial,'Noto Sans CJK SC',sans-serif;fill:#6c7380}</style>
<rect width="1200" height="760" rx="36" fill="#f7f8fc"/><rect x="0" y="0" width="1200" height="182" rx="36" fill="url(#g)"/><rect x="0" y="145" width="1200" height="37" fill="url(#g)"/>
<defs><linearGradient id="g" x1="0" x2="1" y1="0" y2="1"><stop stop-color="#7c3aed"/><stop offset="1" stop-color="#172554"/></linearGradient><filter id="s"><feDropShadow dx="0" dy="12" stdDeviation="18" flood-opacity=".12"/></filter></defs>
<text x="64" y="78" class="title">工作日报</text><text x="64" y="118" class="meta">2026-07-20 · Author: Alex Lin · Codex / Claude Code</text><rect x="64" y="138" width="210" height="36" rx="18" fill="#fff" opacity=".2"/><text x="83" y="162" class="meta">今日进展 3 项</text>
<rect x="48" y="214" width="1104" height="390" rx="25" fill="#fff" filter="url(#s)"/><text x="82" y="248" class="small">HIGHLIGHTS</text><g transform="translate(82 250)"><circle cx="0" cy="0" r="15" fill="#7c3aed" opacity=".14"/><path d="M-6 0l4 4 8-9" fill="none" stroke="#7c3aed" stroke-width="3" stroke-linecap="round" stroke-linejoin="round"/><text x="30" y="6" class="item">完成会话归档适配</text></g><g transform="translate(82 342)"><circle cx="0" cy="0" r="15" fill="#7c3aed" opacity=".14"/><path d="M-6 0l4 4 8-9" fill="none" stroke="#7c3aed" stroke-width="3" stroke-linecap="round" stroke-linejoin="round"/><text x="30" y="6" class="item">上线 HTML 报告模板</text></g><g transform="translate(82 434)"><circle cx="0" cy="0" r="15" fill="#7c3aed" opacity=".14"/><path d="M-6 0l4 4 8-9" fill="none" stroke="#7c3aed" stroke-width="3" stroke-linecap="round" stroke-linejoin="round"/><text x="30" y="6" class="item">明确 OKR 进度规则</text></g>
<rect x="48" y="638" width="1104" height="74" rx="20" fill="#fff"/><circle cx="82" cy="675" r="8" fill="#7c3aed"/><text x="105" y="683" class="item">下一步计划</text></svg>